{"glyphs":{":":{"x_min":0,"x_max":316,"ha":316,"o":"m 110 0 l 129 96 l 226 96 l 206 0 z m 196 434 l 215 530 l 312 530 l 292 434 z"},"$":{"x_min":0,"x_max":632,"ha":632,"o":"m 275 -60 l 288 0 q 200 8 139 28 l 155 110 q 225 76 302 72 l 355 341 q 343 351 337 355 q 276 403 261 424 q 245 444 236 470 q 228 497 227 525 q 227 593 279 653 q 330 712 431 723 l 443 783 l 493 783 l 480 723 q 554 719 636 693 l 620 614 q 540 646 466 650 l 417 400 l 429 392 q 505 336 530 300 q 556 264 556 216 q 556 137 500 76 q 443 15 337 2 l 325 -60 z m 352 75 q 409 88 437 121 q 465 153 465 201 q 465 235 451 259 q 436 282 398 311 z m 374 435 l 417 650 q 397 650 367 634 q 338 617 325 590 q 312 562 312 533 q 312 507 324 486 q 336 464 374 435 z"},"?":{"x_min":0,"x_max":464,"ha":464,"o":"m 134 0 l 153 96 l 250 96 l 230 0 z m 172 193 l 173 199 q 187 263 207 296 q 228 329 271 372 l 324 424 q 403 501 416 529 q 429 557 429 586 q 429 624 399 646 q 370 668 313 668 q 284 668 253 663 q 222 658 154 628 l 171 713 q 209 726 233 730 q 256 735 285 738 q 314 741 343 741 q 431 741 481 703 q 531 665 531 600 q 531 548 501 500 q 472 452 395 388 l 356 355 q 334 336 309 302 q 284 268 270 199 l 269 193 z"},"<":{"x_min":0,"x_max":632,"ha":632,"o":"m 586 24 l 109 289 l 692 554 l 673 465 l 271 283 l 600 101 z"},"'":{"x_min":0,"x_max":217,"ha":217,"o":"m 199 506 l 175 771 l 295 771 l 271 506 z"},"=":{"x_min":0,"x_max":632,"ha":632,"o":"m 85 168 l 99 241 l 629 241 l 615 168 z m 119 337 l 133 410 l 663 410 l 648 337 z"},"a":{"x_min":0,"x_max":608,"ha":608,"o":"m 416 0 l 459 217 q 397 113 324 51 q 250 -12 186 -12 q 140 -12 112 27 q 84 67 84 116 q 84 213 139 319 q 193 426 272 484 q 352 542 441 542 q 458 542 479 540 q 499 537 521 530 l 618 530 l 512 0 z m 481 332 l 506 455 q 489 464 470 469 q 452 473 432 473 q 376 473 319 427 q 262 381 225 293 q 187 206 187 134 q 187 112 197 97 q 207 82 227 82 q 299 82 481 332 z"},"L":{"x_min":0,"x_max":545,"ha":545,"o":"m 93 0 l 237 723 l 339 723 l 211 77 l 548 77 l 532 0 z"},"3":{"x_min":0,"x_max":632,"ha":632,"o":"m 115 5 l 131 88 q 226 54 286 54 q 366 54 417 105 q 442 130 457 165 q 472 199 472 235 q 472 297 421 328 q 371 358 269 358 l 245 358 l 260 431 l 284 431 q 418 431 480 492 q 500 511 511 536 q 523 561 523 584 q 523 620 495 644 q 466 669 405 669 q 337 669 250 640 l 266 722 q 349 741 423 741 q 520 741 570 703 q 620 665 620 595 q 620 523 565 467 q 544 445 518 428 q 493 411 436 393 q 511 374 541 333 q 571 292 571 243 q 571 195 551 147 q 530 100 497 65 q 454 21 400 1 q 346 -18 266 -18 q 230 -18 201 -14 q 172 -10 115 5 z"},";":{"x_min":0,"x_max":316,"ha":316,"o":"m 143 0 l 110 0 l 129 96 l 226 96 l 206 0 q 190 -79 154 -115 q 118 -151 79 -157 l 88 -111 q 117 -103 126 -71 q 136 -40 141 -11 z m 196 434 l 215 530 l 312 530 l 292 434 z"},"J":{"x_min":0,"x_max":408,"ha":408,"o":"m -22 -128 l -5 -42 q 56 -65 106 -65 q 200 -65 227 70 l 356 723 l 459 723 l 343 142 q 316 6 281 -43 q 247 -93 197 -119 q 148 -145 79 -145 q 44 -145 -22 -128 z"},"V":{"x_min":0,"x_max":687,"ha":687,"o":"m 293 0 l 155 723 l 259 723 l 372 134 l 711 723 l 811 723 l 396 0 z"},"\"":{"x_min":0,"x_max":361,"ha":361,"o":"m 187 530 l 175 771 l 271 771 l 259 530 z m 355 530 l 343 771 l 440 771 l 428 530 z"},"7":{"x_min":0,"x_max":632,"ha":632,"o":"m 150 0 q 163 64 176 96 q 189 128 205 156 q 244 227 302 302 q 359 377 427 453 l 589 632 l 231 632 l 249 723 l 707 723 l 690 639 q 667 615 656 604 q 501 445 394 288 q 343 212 306 138 q 294 113 283 84 q 272 56 262 0 z"},"S":{"x_min":0,"x_max":553,"ha":553,"o":"m 64 15 l 82 104 q 149 76 189 67 q 230 59 270 59 q 350 59 391 96 q 433 133 433 186 q 433 221 414 249 q 395 276 341 320 l 298 354 q 222 416 201 453 q 181 491 181 535 q 181 615 246 678 q 310 741 437 741 q 525 741 625 709 l 607 623 q 507 664 429 664 q 366 664 325 634 q 284 604 284 552 q 284 519 302 494 q 319 470 378 422 l 423 386 q 479 341 508 297 q 536 253 536 199 q 536 112 467 47 q 397 -18 249 -18 q 207 -18 171 -13 q 135 -8 64 15 z"},"}":{"x_min":0,"x_max":325,"ha":325,"o":"m 22 -145 l 37 -72 q 93 -67 113 -36 q 132 -4 136 59 l 138 100 q 142 179 171 232 q 200 285 264 313 q 240 330 229 345 q 219 360 213 380 q 207 400 207 419 q 207 469 227 520 l 249 576 q 258 599 265 618 q 272 637 272 648 q 272 673 252 685 q 231 697 190 699 l 205 771 q 293 762 325 730 q 357 698 357 656 q 357 615 331 548 l 310 498 q 288 441 288 409 q 288 380 307 362 q 327 345 343 345 l 366 345 l 353 277 l 329 277 q 305 277 277 258 q 248 239 237 202 q 227 165 227 122 l 225 71 q 225 -34 174 -84 q 124 -134 22 -145 z"},"Z":{"x_min":0,"x_max":578,"ha":578,"o":"m 29 0 l 45 82 l 538 646 l 182 646 l 197 723 l 680 723 l 665 646 l 172 82 l 566 82 l 550 0 z"},"x":{"x_min":0,"x_max":543,"ha":543,"o":"m 25 0 l 280 278 l 151 530 l 252 530 l 348 341 l 518 530 l 615 530 l 383 273 l 524 0 l 422 0 l 315 208 l 123 0 z"},")":{"x_min":0,"x_max":325,"ha":325,"o":"m 205 771 q 262 726 290 677 q 318 628 334 564 q 351 500 351 434 q 351 331 312 222 q 273 112 207 24 q 141 -64 22 -145 l 37 -72 q 121 5 166 94 q 211 183 237 286 q 263 389 263 478 q 263 521 255 563 q 247 605 233 638 q 219 671 191 702 z"},"&":{"x_min":0,"x_max":702,"ha":702,"o":"m 532 0 q 516 16 498 49 q 458 22 426 9 q 393 -4 359 -11 q 324 -18 291 -18 q 204 -18 145 41 q 86 100 86 187 q 86 241 109 287 q 133 333 181 371 q 229 409 314 438 q 291 512 291 553 q 291 622 349 681 q 407 741 491 741 q 554 741 593 708 q 631 674 631 616 q 631 482 425 397 q 463 296 539 166 q 574 211 593 259 q 612 306 619 388 l 714 388 q 705 323 687 277 q 669 230 644 189 q 619 147 578 107 q 585 95 587 92 l 617 49 l 644 10 l 652 0 z m 461 110 q 393 221 335 370 q 263 346 226 302 q 188 258 188 202 q 188 164 206 129 q 223 93 256 77 q 289 60 326 60 q 394 60 461 110 z m 401 465 q 480 494 512 534 q 544 575 544 612 q 544 635 529 652 q 514 669 483 669 q 455 669 432 655 q 409 640 397 614 q 384 587 384 560 q 384 525 401 465 z"},"_":{"x_min":0,"x_max":500,"ha":500,"o":"m 34 -72 l 48 0 l 452 0 l 438 -72 z"},"v":{"x_min":0,"x_max":542,"ha":542,"o":"m 202 0 l 135 530 l 226 530 l 278 107 l 537 530 l 629 530 l 299 0 z"},"O":{"x_min":0,"x_max":777,"ha":777,"o":"m 373 -18 q 254 -18 181 54 q 109 125 109 256 q 109 380 166 492 q 224 604 323 672 q 422 741 547 741 q 670 741 742 668 q 814 596 814 467 q 814 342 755 229 q 697 117 598 49 q 500 -18 373 -18 z m 392 59 q 473 59 543 111 q 613 163 659 261 q 705 359 705 460 q 705 548 659 606 q 613 664 529 664 q 451 664 381 613 q 310 561 264 463 q 218 364 218 262 q 218 174 264 116 q 311 59 392 59 z"},"(":{"x_min":0,"x_max":325,"ha":325,"o":"m 246 -145 q 188 -99 160 -50 q 132 -2 116 62 q 100 126 100 193 q 100 295 138 405 q 177 514 244 603 q 310 691 428 771 l 414 699 q 329 622 284 532 q 239 443 213 341 q 187 238 187 148 q 187 105 195 63 q 204 21 217 -11 q 231 -44 259 -75 z"},"C":{"x_min":0,"x_max":679,"ha":679,"o":"m 648 42 q 495 -18 372 -18 q 250 -18 180 55 q 109 127 109 255 q 109 377 169 492 q 229 606 329 674 q 428 741 567 741 q 663 741 770 716 l 752 627 q 647 658 610 661 q 573 664 555 664 q 458 664 386 614 q 313 563 265 464 q 217 364 217 264 q 217 171 268 118 q 319 65 415 65 q 451 65 495 72 q 540 78 665 124 z"},"W":{"x_min":0,"x_max":886,"ha":886,"o":"m 206 0 l 167 723 l 263 723 l 294 155 l 547 723 l 644 723 l 659 168 l 922 723 l 1012 723 l 669 0 l 567 0 l 552 547 l 308 0 z"},"A":{"x_min":0,"x_max":687,"ha":687,"o":"m 18 0 l 434 723 l 536 723 l 675 0 l 572 0 l 535 186 l 225 186 l 118 0 z m 268 263 l 521 263 l 454 589 z"},"f":{"x_min":0,"x_max":382,"ha":382,"o":"m 70 -193 l 200 458 l 115 458 l 130 530 l 214 530 l 219 554 q 241 663 326 733 q 357 759 391 771 q 424 783 470 783 q 513 783 563 769 l 547 692 q 506 711 460 711 q 407 711 369 670 q 331 630 313 542 l 311 530 l 455 530 l 440 458 l 296 458 l 167 -193 z"},"Q":{"x_min":0,"x_max":777,"ha":777,"o":"m 715 -174 q 620 -138 563 -100 q 507 -63 448 -12 q 412 -18 381 -18 q 251 -18 180 55 q 109 128 109 256 q 109 380 166 492 q 224 604 323 672 q 422 741 547 741 q 670 741 742 669 q 814 597 814 467 q 814 375 782 289 q 750 203 690 135 q 631 67 534 15 q 594 -27 657 -53 q 721 -79 802 -94 z m 392 59 q 473 59 543 111 q 613 163 659 261 q 705 359 705 460 q 705 548 659 606 q 613 664 529 664 q 451 664 381 613 q 310 561 264 463 q 218 364 218 262 q 218 174 264 116 q 311 59 392 59 z"},"w":{"x_min":0,"x_max":781,"ha":781,"o":"m 171 0 l 123 530 l 213 530 l 250 128 l 444 530 l 538 530 l 565 128 l 769 530 l 856 530 l 585 0 l 488 0 l 463 404 l 269 0 z"},"-":{"x_min":0,"x_max":313,"ha":313,"o":"m 101 265 l 115 337 l 332 337 l 318 265 z"},"E":{"x_min":0,"x_max":547,"ha":547,"o":"m 93 0 l 237 723 l 641 723 l 625 646 l 324 646 l 278 414 l 524 414 l 510 338 l 263 338 l 211 77 l 533 77 l 518 0 z"},"s":{"x_min":0,"x_max":489,"ha":489,"o":"m 76 28 l 92 109 q 192 60 259 60 q 300 60 323 79 q 346 98 346 128 q 346 147 336 163 q 327 178 301 206 l 256 251 q 200 309 186 339 q 171 369 171 397 q 171 448 216 495 q 261 542 354 542 q 381 542 411 538 q 440 534 502 511 l 486 430 q 426 458 399 464 q 373 470 349 470 q 307 470 287 451 q 267 433 267 408 q 267 391 276 375 q 285 360 320 324 l 368 275 q 408 235 425 204 q 442 172 442 136 q 442 70 391 29 q 339 -12 251 -12 q 226 -12 198 -8 q 171 -4 146 3 q 120 10 76 28 z"},">":{"x_min":0,"x_max":632,"ha":632,"o":"m 214 554 l 692 289 l 109 24 l 128 113 l 530 295 l 201 478 z"},"l":{"x_min":0,"x_max":289,"ha":289,"o":"m 96 0 l 250 771 l 346 771 l 192 0 z"},"8":{"x_min":0,"x_max":632,"ha":632,"o":"m 297 390 q 263 424 250 443 q 238 462 231 484 q 224 506 224 526 q 224 576 256 629 q 289 683 344 712 q 400 741 466 741 q 519 741 563 723 q 608 705 628 673 q 648 641 648 604 q 648 550 611 493 q 573 437 480 390 q 531 357 565 316 q 600 275 600 212 q 600 147 562 94 q 524 41 463 11 q 401 -18 325 -18 q 232 -18 175 26 q 118 71 118 147 q 118 188 136 229 q 153 271 190 309 q 227 348 297 390 z m 360 347 q 272 293 243 252 q 214 211 214 168 q 214 120 251 87 q 288 54 343 54 q 384 54 421 72 q 457 89 477 120 q 498 151 498 187 q 498 227 473 259 q 449 291 360 347 z m 410 433 q 495 475 530 512 q 564 550 564 588 q 564 626 535 647 q 507 668 458 668 q 395 668 357 635 q 320 601 320 555 q 320 523 339 495 q 359 466 410 433 z"},"\\":{"x_min":0,"x_max":482,"ha":482,"o":"m 373 -145 l 159 771 l 233 771 l 447 -145 z"},"e":{"x_min":0,"x_max":529,"ha":529,"o":"m 502 53 q 376 -12 265 -12 q 182 -12 136 37 q 90 85 90 169 q 90 261 132 346 q 174 432 246 487 q 318 542 403 542 q 461 542 493 514 q 524 486 524 436 q 524 376 486 325 q 447 275 371 240 q 295 205 187 196 q 187 128 217 96 q 246 64 293 64 q 331 64 394 84 q 458 104 521 146 z m 196 268 q 283 276 330 296 q 376 316 404 349 q 431 383 431 414 q 431 433 415 450 q 399 467 374 467 q 340 467 307 445 q 279 428 256 400 q 238 378 224 352 q 209 326 196 268 z"},"b":{"x_min":0,"x_max":608,"ha":608,"o":"m 96 0 l 250 771 l 346 771 l 255 313 q 316 417 390 479 q 464 542 528 542 q 574 542 602 503 q 629 463 629 415 q 629 317 575 211 q 521 104 441 46 q 362 -12 273 -12 q 256 -12 236 -9 q 216 -6 192 0 z m 232 199 l 208 75 q 226 66 244 62 q 263 57 282 57 q 337 57 394 103 q 452 149 489 237 q 527 325 527 396 q 527 418 517 434 q 507 449 487 449 q 414 449 232 199 z"},"%":{"x_min":0,"x_max":741,"ha":741,"o":"m 261 361 q 211 361 175 393 q 139 424 139 490 q 139 552 166 608 q 192 665 237 694 q 281 723 332 723 q 383 723 419 691 q 455 660 455 594 q 455 532 428 476 q 401 419 357 390 q 314 361 261 361 z m 272 416 q 319 416 352 469 q 386 522 386 585 q 386 627 369 648 q 353 668 324 668 q 278 668 244 615 q 211 562 211 500 q 211 458 228 437 q 244 416 272 416 z m 73 -18 l 733 741 l 813 741 l 152 -18 z m 553 0 q 503 0 467 31 q 431 62 431 129 q 431 191 458 247 q 485 303 529 332 q 573 361 624 361 q 676 361 711 330 q 747 298 747 233 q 747 170 720 114 q 693 58 649 29 q 606 0 553 0 z m 565 54 q 595 54 621 77 q 646 101 662 142 q 678 183 678 223 q 678 265 661 286 q 645 307 616 307 q 570 307 537 254 q 503 201 503 138 q 503 96 520 75 q 537 54 565 54 z"},"m":{"x_min":0,"x_max":934,"ha":934,"o":"m 96 0 l 202 530 l 298 530 l 255 313 q 296 394 373 468 q 449 542 521 542 q 553 542 578 521 q 602 500 602 450 q 602 423 595 386 l 580 313 q 633 408 705 475 q 777 542 847 542 q 878 542 903 521 q 927 499 927 450 q 927 423 920 386 l 843 0 l 747 0 l 823 386 q 826 396 826 410 q 826 428 817 437 q 808 446 798 446 q 740 446 556 193 l 518 0 l 421 0 l 498 386 q 500 396 500 411 q 500 428 492 437 q 483 446 473 446 q 416 446 250 219 l 231 193 l 192 0 z"},"#":{"x_min":0,"x_max":632,"ha":632,"o":"m 89 0 l 191 217 l 79 217 l 91 277 l 220 277 l 299 446 l 125 446 l 137 506 l 327 506 l 429 723 l 496 723 l 394 506 l 518 506 l 621 723 l 687 723 l 585 506 l 697 506 l 685 446 l 557 446 l 477 277 l 651 277 l 639 217 l 449 217 l 347 0 l 280 0 l 382 217 l 258 217 l 156 0 z m 286 277 l 411 277 l 490 446 l 366 446 z"},",":{"x_min":0,"x_max":316,"ha":316,"o":"m 143 0 l 98 0 l 122 121 l 243 121 l 221 9 q 206 -63 171 -108 q 136 -153 66 -157 l 74 -121 q 97 -121 113 -99 q 128 -77 139 -20 z"},"n":{"x_min":0,"x_max":621,"ha":621,"o":"m 96 0 l 202 530 l 298 530 l 255 313 q 312 411 382 477 q 452 542 523 542 q 562 542 586 518 q 611 495 611 441 q 611 408 605 379 l 530 0 l 434 0 l 510 382 q 512 395 512 409 q 512 425 503 436 q 495 446 481 446 q 442 446 384 384 q 326 323 230 187 l 192 0 z"},"h":{"x_min":0,"x_max":621,"ha":621,"o":"m 96 0 l 250 771 l 346 771 l 255 313 q 312 411 382 477 q 452 542 523 542 q 562 542 586 518 q 611 495 611 441 q 611 408 605 379 l 530 0 l 434 0 l 510 382 q 512 395 512 409 q 512 425 503 436 q 495 446 481 446 q 442 446 384 384 q 326 323 230 187 l 192 0 z"},"z":{"x_min":0,"x_max":536,"ha":536,"o":"m 54 0 l 69 72 l 434 458 l 154 458 l 169 530 l 573 530 l 559 458 l 193 72 l 508 72 l 494 0 z"},"B":{"x_min":0,"x_max":593,"ha":593,"o":"m 93 0 l 237 723 l 393 723 q 539 723 580 680 q 620 637 620 587 q 620 547 600 506 q 580 465 543 433 q 506 401 440 377 q 494 358 523 333 q 552 307 566 275 q 581 243 581 207 q 581 131 519 66 q 457 0 314 0 z m 210 77 l 278 77 q 392 77 434 117 q 476 158 476 215 q 476 276 417 309 q 358 341 286 341 l 262 341 z m 275 407 l 321 407 q 406 407 460 459 q 515 510 515 567 q 515 591 502 609 q 490 627 463 637 q 436 646 354 646 l 323 646 z"},"K":{"x_min":0,"x_max":635,"ha":635,"o":"m 93 0 l 237 723 l 339 723 l 270 374 l 614 723 l 720 723 l 376 376 l 629 0 l 513 0 l 270 371 l 196 0 z"},"R":{"x_min":0,"x_max":632,"ha":632,"o":"m 93 0 l 237 723 l 455 723 q 513 723 552 713 q 591 703 617 668 q 643 633 643 583 q 643 509 590 444 q 538 379 450 345 l 621 0 l 507 0 l 356 319 l 258 319 l 195 0 z m 273 395 l 330 395 q 391 395 436 418 q 481 441 508 484 q 534 527 534 571 q 534 608 506 627 q 478 646 389 646 l 324 646 z"},"T":{"x_min":0,"x_max":624,"ha":624,"o":"m 261 0 l 389 646 l 133 646 l 148 723 l 764 723 l 749 646 l 492 646 l 363 0 z"},"P":{"x_min":0,"x_max":575,"ha":575,"o":"m 93 0 l 237 723 l 443 723 q 545 723 594 683 q 642 643 642 574 q 642 505 597 435 q 552 364 476 326 q 399 289 312 289 l 252 289 l 195 0 z m 268 366 l 314 366 q 423 366 479 430 q 535 494 535 565 q 535 616 497 631 q 460 646 385 646 l 324 646 z"},"|":{"x_min":0,"x_max":232,"ha":232,"o":"m 51 -145 l 233 771 l 307 771 l 125 -145 z"},"t":{"x_min":0,"x_max":383,"ha":383,"o":"m 331 -2 q 298 -12 271 -12 q 206 -12 171 20 q 136 51 136 100 q 136 131 145 177 l 201 458 l 116 458 l 130 530 l 215 530 l 234 626 l 333 639 l 312 530 l 438 530 l 423 458 l 297 458 l 239 168 q 231 127 231 114 q 231 93 244 76 q 258 60 292 60 q 315 60 345 70 z"},"M":{"x_min":0,"x_max":828,"ha":828,"o":"m 92 0 l 236 723 l 375 723 l 455 204 l 745 723 l 880 723 l 736 0 l 641 0 l 759 593 l 466 70 l 379 70 l 299 595 l 180 0 z"},"g":{"x_min":0,"x_max":608,"ha":608,"o":"m 51 -163 l 67 -78 q 169 -126 253 -126 q 332 -126 369 -87 q 406 -47 418 15 l 465 251 q 418 161 375 115 q 331 68 287 41 q 242 14 202 14 q 159 14 127 50 q 95 85 95 154 q 95 246 145 338 q 195 430 273 486 q 351 542 440 542 q 458 542 478 540 q 498 537 521 530 l 617 530 l 516 19 q 500 -63 464 -108 q 429 -152 368 -178 q 307 -205 233 -205 q 140 -205 51 -163 z m 506 455 q 490 464 471 469 q 452 473 430 473 q 379 473 324 432 q 269 391 234 313 q 199 235 199 171 q 199 137 211 123 q 224 108 240 108 q 286 108 367 203 q 449 298 488 364 z"},"j":{"x_min":0,"x_max":325,"ha":325,"o":"m -110 -190 l -94 -108 q -41 -132 0 -132 q 52 -132 87 -91 q 123 -50 136 19 l 238 530 l 334 530 l 244 72 q 221 -40 186 -93 q 151 -146 98 -176 q 45 -205 -17 -205 q -64 -205 -110 -190 z m 257 626 l 276 723 l 373 723 l 354 626 z"},"i":{"x_min":0,"x_max":289,"ha":289,"o":"m 96 0 l 202 530 l 298 530 l 192 0 z m 221 626 l 240 723 l 336 723 l 317 626 z"},"y":{"x_min":0,"x_max":550,"ha":550,"o":"m 100 -193 l 221 0 l 132 530 l 231 530 l 299 123 l 552 530 l 645 530 l 192 -193 z"},"@":{"x_min":0,"x_max":858,"ha":858,"o":"m 600 21 q 512 -18 427 -18 q 336 -18 264 20 q 191 58 151 131 q 111 204 111 281 q 111 393 175 505 q 239 618 347 679 q 454 741 568 741 q 659 741 732 701 q 805 661 846 589 q 888 518 888 435 q 888 358 853 288 q 818 218 761 181 q 704 145 636 145 q 592 145 573 161 q 555 178 555 201 q 555 221 564 252 l 584 313 l 578 313 q 533 226 483 185 q 433 145 389 145 q 345 145 320 176 q 295 207 295 254 q 295 330 336 413 q 377 496 432 535 q 486 575 551 575 q 566 575 590 574 q 614 572 628 572 l 695 572 l 633 262 q 630 246 630 231 q 630 215 640 207 q 649 199 667 199 q 710 199 750 234 q 791 269 812 318 q 834 367 834 426 q 834 542 753 614 q 672 687 561 687 q 461 687 368 631 q 275 576 220 479 q 166 383 166 286 q 166 221 199 160 q 232 100 293 68 q 353 36 435 36 q 463 36 496 40 q 529 44 582 71 z m 590 407 l 609 502 q 564 518 531 518 q 450 518 410 436 q 370 354 370 274 q 370 243 381 224 q 392 205 411 205 q 438 205 486 257 q 535 309 590 407 z"},".":{"x_min":0,"x_max":316,"ha":316,"o":"m 98 0 l 122 121 l 242 121 l 218 0 z"},"p":{"x_min":0,"x_max":608,"ha":608,"o":"m 58 -193 l 202 530 l 298 530 l 255 313 q 316 417 390 479 q 464 542 528 542 q 574 542 602 503 q 629 464 629 414 q 629 317 575 211 q 521 105 442 47 q 363 -12 273 -12 q 239 -12 193 0 l 154 -193 z m 232 199 l 208 75 q 244 57 283 57 q 337 57 395 103 q 452 149 490 237 q 527 325 527 396 q 527 419 517 434 q 507 449 487 449 q 415 449 232 199 z"},"X":{"x_min":0,"x_max":621,"ha":621,"o":"m 4 0 l 326 375 l 166 723 l 278 723 l 400 462 l 624 723 l 731 723 l 437 379 l 612 0 l 500 0 l 363 293 l 110 0 z"},"*":{"x_min":0,"x_max":470,"ha":470,"o":"m 232 359 l 174 412 l 304 525 q 314 507 331 502 z m 160 552 l 193 624 l 317 570 q 302 558 302 538 q 302 536 303 530 z m 332 723 l 411 723 l 364 570 q 353 576 342 576 q 332 576 322 570 z m 517 619 l 529 548 l 376 526 q 378 535 378 540 q 378 553 367 566 z m 443 404 l 370 362 l 335 500 q 349 500 356 504 q 364 508 373 519 z"},"Y":{"x_min":0,"x_max":608,"ha":608,"o":"m 254 0 l 318 325 l 151 723 l 262 723 l 390 418 l 631 723 l 733 723 l 421 326 l 356 0 z"},"c":{"x_min":0,"x_max":503,"ha":503,"o":"m 459 36 q 349 -12 263 -12 q 180 -12 135 36 q 90 85 90 174 q 90 269 137 354 q 184 438 261 490 q 338 542 420 542 q 476 542 544 524 l 528 447 q 471 470 418 470 q 359 470 308 434 q 258 398 225 327 q 193 256 193 180 q 193 121 221 94 q 250 68 291 68 q 312 68 341 75 q 371 82 405 94 q 439 105 478 128 z"},"!":{"x_min":0,"x_max":316,"ha":316,"o":"m 110 0 l 129 96 l 226 96 l 206 0 z m 160 193 l 225 578 l 254 723 l 350 723 l 321 578 l 232 193 z"},"/":{"x_min":0,"x_max":482,"ha":482,"o":"m -23 -145 l 544 771 l 629 771 l 62 -145 z"},"[":{"x_min":0,"x_max":325,"ha":325,"o":"m 56 -145 l 238 771 l 431 771 l 416 699 l 308 699 l 154 -72 l 263 -72 l 249 -145 z"},"6":{"x_min":0,"x_max":632,"ha":632,"o":"m 265 408 q 308 439 351 454 q 394 470 438 470 q 518 470 570 420 q 623 370 623 296 q 623 233 594 168 q 565 104 518 56 q 482 21 437 1 q 391 -18 337 -18 q 236 -18 184 51 q 131 121 131 227 q 131 340 172 449 q 212 559 283 640 q 326 688 381 714 q 437 741 503 741 q 539 741 578 735 q 602 732 619 728 q 637 724 673 710 l 657 628 q 572 668 497 668 q 429 668 378 623 q 348 595 324 559 q 308 534 293 504 q 279 474 265 408 z m 231 203 q 231 131 265 93 q 298 54 353 54 q 382 54 410 67 q 438 79 457 99 q 489 134 508 182 q 526 230 526 277 q 526 332 495 362 q 465 392 418 392 q 355 392 293 346 q 231 300 231 203 z"},"r":{"x_min":0,"x_max":478,"ha":478,"o":"m 96 0 l 202 530 l 298 530 l 255 313 q 292 379 344 435 q 395 492 436 517 q 476 542 525 542 q 536 542 550 541 l 529 436 q 508 443 492 443 q 444 443 392 391 q 339 339 230 187 l 192 0 z"},"2":{"x_min":0,"x_max":632,"ha":632,"o":"m 93 0 l 109 78 q 142 138 188 186 q 235 233 304 286 l 365 332 q 451 398 498 455 q 521 483 533 511 q 545 539 545 567 q 545 613 513 641 q 481 669 419 669 q 332 669 227 610 l 244 696 q 260 702 269 706 q 364 741 443 741 q 537 741 592 700 q 647 660 647 579 q 647 535 632 497 q 608 438 566 396 q 523 355 444 298 l 383 254 q 328 214 308 195 q 288 176 268 153 q 257 139 247 125 q 236 111 225 84 l 544 84 l 527 0 z"},"{":{"x_min":0,"x_max":325,"ha":325,"o":"m 428 771 l 413 699 q 358 694 338 662 q 318 630 314 567 l 312 527 q 308 447 279 394 q 250 341 186 313 q 209 296 220 281 q 231 266 237 246 q 243 227 243 207 q 243 158 223 107 l 201 51 q 191 27 185 9 q 178 -10 178 -22 q 178 -47 198 -59 q 219 -70 260 -72 l 246 -145 q 158 -136 125 -104 q 93 -73 93 -29 q 93 12 120 78 l 140 129 q 163 185 163 218 q 163 246 143 264 q 124 282 107 282 l 84 282 l 98 350 l 121 350 q 145 350 173 368 q 202 387 213 425 q 224 462 224 504 l 225 556 q 225 660 275 710 q 326 761 428 771 z"},"9":{"x_min":0,"x_max":632,"ha":632,"o":"m 512 315 q 469 284 426 269 q 382 253 338 253 q 259 253 206 303 q 154 354 154 427 q 154 503 196 581 q 237 659 299 700 q 361 741 439 741 q 541 741 593 671 q 645 602 645 496 q 645 365 592 241 q 539 118 459 50 q 379 -18 263 -18 q 231 -18 198 -14 q 165 -9 103 12 l 120 95 q 205 54 280 54 q 334 54 378 84 q 421 114 457 170 q 492 227 512 315 z m 545 521 q 545 591 512 630 q 478 668 424 668 q 378 668 340 641 q 302 614 276 559 q 250 503 250 445 q 250 391 281 361 q 312 331 358 331 q 421 331 483 377 q 545 423 545 521 z"}," ":{"x_min":0,"x_max":316,"ha":316,"o":""},"I":{"x_min":0,"x_max":289,"ha":289,"o":"m 93 0 l 237 723 l 339 723 l 196 0 z"},"H":{"x_min":0,"x_max":735,"ha":735,"o":"m 93 0 l 237 723 l 339 723 l 279 417 l 623 417 l 683 723 l 786 723 l 642 0 l 540 0 l 607 341 l 264 341 l 196 0 z"},"4":{"x_min":0,"x_max":632,"ha":632,"o":"m 365 0 l 402 187 l 83 187 l 101 277 l 497 723 l 599 723 l 508 265 l 604 265 l 588 187 l 492 187 l 455 0 z m 185 265 l 423 265 l 488 602 z"},"~":{"x_min":0,"x_max":632,"ha":632,"o":"m 94 217 q 108 288 156 333 q 203 377 260 377 q 286 377 307 369 q 329 360 359 343 l 406 315 l 462 282 q 484 271 504 271 q 527 271 550 294 q 573 317 581 361 l 653 361 q 630 273 586 236 q 542 199 489 199 q 466 199 448 204 q 429 209 379 238 l 330 266 l 278 296 q 260 305 245 305 q 226 305 203 287 q 179 269 167 217 z"},"D":{"x_min":0,"x_max":743,"ha":743,"o":"m 93 0 l 237 723 l 491 723 q 604 723 659 698 q 714 674 747 616 q 780 558 780 468 q 780 346 723 234 q 666 123 573 61 q 480 0 324 0 z m 210 77 l 315 77 q 442 77 512 124 q 582 172 627 267 q 672 361 672 463 q 672 522 648 562 q 625 603 573 624 q 521 646 393 646 l 324 646 z"},"^":{"x_min":0,"x_max":632,"ha":632,"o":"m 434 561 l 175 193 l 90 193 l 460 723 l 620 193 l 545 193 z"},"0":{"x_min":0,"x_max":632,"ha":632,"o":"m 320 -18 q 240 -18 180 42 q 121 102 121 224 q 121 345 162 461 q 203 577 278 659 q 353 741 455 741 q 539 741 598 680 q 657 619 657 499 q 657 378 616 263 q 576 148 501 65 q 426 -18 320 -18 z m 332 54 q 448 59 504 221 q 561 383 561 527 q 561 605 525 637 q 490 669 444 669 q 384 669 336 615 q 287 561 252 437 q 217 312 217 195 q 217 146 232 115 q 247 83 276 68 q 306 53 332 54 z"},"F":{"x_min":0,"x_max":536,"ha":536,"o":"m 93 0 l 237 723 l 641 723 l 625 646 l 324 646 l 276 404 l 522 404 l 507 329 l 261 329 l 196 0 z"},"`":{"x_min":0,"x_max":566,"ha":566,"o":"m 436 626 l 333 771 l 441 771 l 508 626 z"},"k":{"x_min":0,"x_max":575,"ha":575,"o":"m 97 0 l 250 771 l 347 771 l 250 284 l 503 530 l 616 530 l 363 282 l 561 0 l 451 0 l 250 284 l 193 0 z"},"u":{"x_min":0,"x_max":621,"ha":621,"o":"m 630 530 l 525 0 l 428 0 l 472 217 q 414 119 344 53 q 275 -12 203 -12 q 165 -12 140 11 q 115 35 115 90 q 115 122 121 150 l 196 530 l 293 530 l 217 147 q 214 136 214 122 q 214 104 223 94 q 231 84 245 84 q 285 84 346 150 q 406 215 497 343 l 534 530 z"},"]":{"x_min":0,"x_max":325,"ha":325,"o":"m 395 771 l 212 -145 l 20 -145 l 34 -72 l 142 -72 l 296 699 l 188 699 l 202 771 z"},"U":{"x_min":0,"x_max":693,"ha":693,"o":"m 230 723 l 338 723 l 243 248 q 236 211 236 180 q 236 119 278 88 q 319 58 380 58 q 451 58 498 103 q 544 148 567 262 l 659 723 l 748 723 l 660 279 q 638 168 604 110 q 570 52 506 17 q 442 -18 357 -18 q 260 -18 195 31 q 130 80 130 177 q 130 220 140 270 z"},"o":{"x_min":0,"x_max":566,"ha":566,"o":"m 263 -12 q 174 -12 131 39 q 88 90 88 167 q 88 261 133 353 q 178 445 246 494 q 314 542 406 542 q 498 542 540 490 q 582 439 582 364 q 582 270 537 178 q 493 87 425 37 q 358 -12 263 -12 z m 284 60 q 365 60 422 148 q 479 236 479 343 q 479 407 455 438 q 431 470 383 470 q 305 470 248 382 q 190 295 190 187 q 190 125 215 92 q 239 60 284 60 z"},"N":{"x_min":0,"x_max":741,"ha":741,"o":"m 94 0 l 238 723 l 338 723 l 589 150 l 703 723 l 791 723 l 647 0 l 546 0 l 296 573 l 182 0 z"},"+":{"x_min":0,"x_max":632,"ha":632,"o":"m 285 24 l 331 253 l 102 253 l 116 325 l 345 325 l 391 554 l 463 554 l 417 325 l 646 325 l 632 253 l 403 253 l 357 24 z"},"G":{"x_min":0,"x_max":702,"ha":702,"o":"m 644 30 q 498 -18 369 -18 q 252 -18 181 53 q 109 125 109 255 q 109 378 168 493 q 228 608 326 674 q 425 741 560 741 q 647 741 766 716 l 749 628 q 627 664 546 664 q 453 664 382 612 q 311 561 264 461 q 218 361 218 256 q 218 169 265 114 q 312 59 417 59 q 478 59 553 84 l 597 307 l 699 307 z"},"q":{"x_min":0,"x_max":608,"ha":608,"o":"m 377 -193 l 459 217 q 397 113 324 51 q 250 -12 186 -12 q 140 -12 112 27 q 84 67 84 116 q 84 213 139 319 q 193 426 272 484 q 352 542 441 542 q 458 542 479 540 q 499 537 521 530 l 618 530 l 474 -193 z m 481 332 l 506 455 q 489 464 470 469 q 452 473 432 473 q 376 473 319 427 q 262 381 225 293 q 187 206 187 134 q 187 112 197 97 q 207 82 227 82 q 299 82 481 332 z"},"d":{"x_min":0,"x_max":608,"ha":608,"o":"m 416 0 l 459 217 q 397 113 324 51 q 250 -12 186 -12 q 140 -12 112 27 q 84 67 84 116 q 84 213 139 319 q 193 426 272 484 q 352 542 441 542 q 476 542 521 530 l 569 771 l 666 771 l 512 0 z m 481 332 l 506 455 q 471 473 432 473 q 376 473 319 427 q 262 381 225 293 q 187 206 187 134 q 187 112 197 97 q 207 82 227 82 q 299 82 481 332 z"},"1":{"x_min":0,"x_max":632,"ha":632,"o":"m 261 0 l 390 649 l 278 649 l 290 709 l 504 729 l 357 0 z"},"5":{"x_min":0,"x_max":632,"ha":632,"o":"m 132 0 l 149 84 q 208 63 235 59 q 263 54 290 54 q 391 54 438 116 q 485 179 485 247 q 485 308 442 343 q 400 379 304 379 q 263 379 218 371 l 288 723 l 667 723 l 651 639 l 344 639 l 307 452 l 323 452 q 461 452 524 391 q 587 331 587 253 q 587 205 565 153 q 544 101 510 65 q 468 22 409 2 q 351 -18 283 -18 q 216 -18 132 0 z"}}}
